<?xml version="1.0" encoding="utf-8"?>
<!-- Generator: Adobe Illustrator 16.0.0, SVG Export Plug-In . SVG Version: 6.00 Build 0)  -->
<!DOCTYPE svg PUBLIC "-//W3C//DTD SVG 1.1//EN" "http://www.w3.org/Graphics/SVG/1.1/DTD/svg11.dtd">
<svg version="1.1" id="Layer_1" xmlns="http://www.w3.org/2000/svg" xmlns:xlink="http://www.w3.org/1999/xlink" x="0px" y="0px"
	 width="223.63px" height="98.209px" viewBox="0 0 223.63 98.209" enable-background="new 0 0 223.63 98.209" xml:space="preserve">
<g>
	<g>
		<circle fill="#2F99C9" cx="131.431" cy="37.944" r="37.944"/>
		<polygon fill-rule="evenodd" clip-rule="evenodd" fill="#FFFFFF" points="150.326,13.186 113.541,13.186 113.543,23.73 
			125.311,38.286 112.535,53.688 112.535,62.703 150.326,62.703 150.326,51.834 129.699,51.801 140.34,38.557 140.34,38.024 
			129.283,24.09 150.326,24.09 		"/>
		<path fill-rule="evenodd" clip-rule="evenodd" fill="#313D45" d="M86.871,6.58H53.089h-0.004c-2.56,0-4.629,2.067-4.629,4.628
			v4.497v0.003c0,2.503,1.993,4.537,4.477,4.62h8.759v44.347l0,0l0,0c0,2.563,2.075,4.635,4.631,4.635l0,0h7.083
			c2.561,0,4.637-2.072,4.637-4.635l0,0h0.012V20.327h8.969c2.487-0.083,4.482-2.116,4.482-4.62v-0.003v-4.497
			C91.503,8.65,89.43,6.58,86.871,6.58z"/>
		<path fill="#313D45" d="M200.888,6.559h-20.337V6.56c-2.521,0-4.563,2.043-4.563,4.563v0.001v53.457
			c0,2.521,2.042,4.563,4.563,4.563h7.135c2.521,0,4.564-2.042,4.564-4.563h0.003V48.395h9.217c14.191,0,22.16-6.475,22.16-21.25
			C223.63,12.787,214.332,6.559,200.888,6.559z M194.993,35.279h-2.74V19.675h2.74c6.311,0,11.706,0.081,11.706,7.967
			C206.699,35.279,200.888,35.279,194.993,35.279z"/>
		<path fill="#313D45" d="M29.975,30.963l-4.152-1.247c-2.821-0.911-7.22-2.323-7.22-5.974c0-3.486,3.985-5.229,6.974-5.229
			c2.428,0,4.794,0.618,6.949,1.663l0.004-0.008c0.622,0.316,1.323,0.499,2.069,0.499c1.688,0,3.158-0.917,3.947-2.279l0.01,0.005
			l2.227-4.34l-0.002,0c0.258-0.572,0.405-1.205,0.405-1.873c0-1.874-1.131-3.482-2.747-4.185l0.009-0.021
			C33.604,6.049,28.026,4.901,23.25,4.901c-12.533,0-21.582,8.298-21.582,21c0,12.117,6.725,14.772,16.934,17.678
			c3.486,0.997,9.877,2.576,9.877,7.14c0,4.399-4.069,6.307-7.887,6.307c-3.88,0-7.395-1.418-10.547-3.486l-0.008,0.014
			c-0.692-0.423-1.502-0.67-2.372-0.67c-1.72,0-3.216,0.953-3.994,2.358l-0.01-0.006l-2.463,4.632l0.004,0.003
			c-0.353,0.647-0.553,1.39-0.553,2.179c0,1.708,0.939,3.194,2.328,3.977h0c5.547,3.039,11.817,4.782,18.199,4.782
			c6.308,0,12.864-1.744,17.763-5.896c4.98-4.231,6.473-10.625,6.473-16.85C45.412,37.936,38.689,33.539,29.975,30.963z"/>
	</g>
	<g>
		<path fill="#313D45" d="M3.267,98.209c-1.387,0-2.386-0.324-3.267-1.219l0.934-0.921c0.674,0.675,1.413,0.881,2.359,0.881
			c1.206,0,1.906-0.519,1.906-1.413c0-0.401-0.117-0.738-0.363-0.959c-0.233-0.221-0.467-0.312-1.011-0.389l-1.089-0.156
			c-0.752-0.104-1.349-0.362-1.75-0.738c-0.454-0.429-0.674-1.013-0.674-1.764c0-1.608,1.167-2.71,3.086-2.71
			c1.219,0,2.075,0.312,2.865,1.05l-0.895,0.882c-0.57-0.544-1.232-0.712-2.01-0.712c-1.089,0-1.686,0.622-1.686,1.438
			c0,0.337,0.104,0.635,0.35,0.855c0.233,0.207,0.609,0.363,1.038,0.428l1.05,0.156c0.856,0.129,1.335,0.336,1.725,0.687
			c0.505,0.441,0.752,1.102,0.752,1.893C6.586,97.197,5.199,98.209,3.267,98.209z"/>
		<path fill="#313D45" d="M14.926,94.332v3.8h-1.4v-3.8l-2.762-5.433h1.53l1.932,4.059l1.932-4.059h1.53L14.926,94.332z"/>
		<path fill="#313D45" d="M25.106,98.209c-1.387,0-2.386-0.324-3.267-1.219l0.933-0.921c0.674,0.675,1.414,0.881,2.36,0.881
			c1.206,0,1.906-0.519,1.906-1.413c0-0.401-0.117-0.738-0.363-0.959c-0.233-0.221-0.467-0.312-1.011-0.389l-1.089-0.156
			c-0.752-0.104-1.348-0.362-1.75-0.738c-0.454-0.429-0.674-1.013-0.674-1.764c0-1.608,1.167-2.71,3.086-2.71
			c1.218,0,2.074,0.312,2.865,1.05l-0.895,0.882c-0.571-0.544-1.232-0.712-2.01-0.712c-1.089,0-1.686,0.622-1.686,1.438
			c0,0.337,0.104,0.635,0.35,0.855c0.233,0.207,0.609,0.363,1.037,0.428l1.05,0.156c0.855,0.129,1.335,0.336,1.725,0.687
			c0.505,0.441,0.752,1.102,0.752,1.893C28.426,97.197,27.039,98.209,25.106,98.209z"/>
		<path fill="#313D45" d="M37.128,90.158v7.974h-1.4v-7.974h-2.541v-1.259h6.482v1.259H37.128z"/>
		<path fill="#313D45" d="M44.962,98.131v-9.232h5.899v1.259h-4.499v2.697H50.2v1.244h-3.837v2.774h4.499v1.258H44.962z"/>
		<path fill="#313D45" d="M63.22,98.131V91.96l-2.126,4.498h-1.037l-2.178-4.498v6.171h-1.4v-9.232h1.4l2.697,5.745l2.645-5.745h1.4
			v9.232H63.22z"/>
		<path fill="#313D45" d="M73.168,98.209c-1.387,0-2.386-0.324-3.267-1.219l0.933-0.921c0.674,0.675,1.414,0.881,2.36,0.881
			c1.206,0,1.906-0.519,1.906-1.413c0-0.401-0.117-0.738-0.363-0.959c-0.233-0.221-0.467-0.312-1.011-0.389l-1.089-0.156
			c-0.752-0.104-1.348-0.362-1.75-0.738c-0.454-0.429-0.674-1.013-0.674-1.764c0-1.608,1.167-2.71,3.086-2.71
			c1.218,0,2.074,0.312,2.865,1.05l-0.895,0.882c-0.57-0.544-1.231-0.712-2.009-0.712c-1.089,0-1.686,0.622-1.686,1.438
			c0,0.337,0.104,0.635,0.35,0.855c0.233,0.207,0.609,0.363,1.037,0.428l1.05,0.156c0.855,0.129,1.335,0.336,1.724,0.687
			c0.506,0.441,0.752,1.102,0.752,1.893C76.487,97.197,75.1,98.209,73.168,98.209z"/>
		<path fill="#313D45" d="M91.998,90.158v7.974h-1.4v-7.974h-2.541v-1.259h6.482v1.259H91.998z"/>
		<path fill="#313D45" d="M104.979,98.131v-4.032h-3.747v4.032h-1.4v-9.232h1.4v3.942h3.747v-3.942h1.4v9.232H104.979z"/>
		<path fill="#313D45" d="M117.791,98.131l-0.635-1.854h-3.643l-0.635,1.854h-1.491l3.384-9.232h1.127l3.385,9.232H117.791z
			 M115.367,90.988l-1.438,4.097h2.839L115.367,90.988z"/>
		<path fill="#313D45" d="M126.637,90.158v7.974h-1.4v-7.974h-2.541v-1.259h6.483v1.259H126.637z"/>
		<path fill="#313D45" d="M144.78,94.501h-2.102v3.63h-1.399v-9.232h3.501c1.802,0,2.955,1.193,2.955,2.802
			C147.735,93.307,146.582,94.501,144.78,94.501z M144.702,90.158h-2.023v3.073h2.023c0.972,0,1.634-0.559,1.634-1.53
			C146.336,90.728,145.674,90.158,144.702,90.158z"/>
		<path fill="#313D45" d="M153.132,98.131v-9.232h5.899v1.259h-4.499v2.697h3.838v1.244h-3.838v2.774h4.499v1.258H153.132z"/>
		<path fill="#313D45" d="M169.744,98.131l-1.945-3.89h-1.75v3.89h-1.4v-9.232h3.579c1.749,0,2.865,1.129,2.865,2.697
			c0,1.323-0.805,2.165-1.841,2.451l2.125,4.084H169.744z M168.123,90.158h-2.074v2.891h2.074c0.934,0,1.569-0.531,1.569-1.438
			C169.692,90.702,169.057,90.158,168.123,90.158z"/>
		<path fill="#313D45" d="M178.239,90.158v2.813h3.838v1.257h-3.838v3.903h-1.4v-9.232h5.899v1.259H178.239z"/>
		<path fill="#313D45" d="M193.282,97.223c-0.636,0.636-1.452,0.986-2.438,0.986s-1.79-0.351-2.425-0.986
			c-0.908-0.907-0.895-1.932-0.895-3.708s-0.014-2.801,0.895-3.708c0.635-0.636,1.439-0.985,2.425-0.985s1.802,0.35,2.438,0.985
			c0.907,0.907,0.881,1.932,0.881,3.708S194.189,96.316,193.282,97.223z M192.219,90.65c-0.324-0.35-0.829-0.57-1.374-0.57
			s-1.05,0.221-1.374,0.57c-0.454,0.492-0.545,1.011-0.545,2.865s0.091,2.373,0.545,2.865c0.324,0.351,0.829,0.57,1.374,0.57
			s1.05-0.22,1.374-0.57c0.453-0.492,0.545-1.011,0.545-2.865S192.672,91.142,192.219,90.65z"/>
		<path fill="#313D45" d="M205.032,98.131l-1.945-3.89h-1.751v3.89h-1.4v-9.232h3.578c1.751,0,2.865,1.129,2.865,2.697
			c0,1.323-0.803,2.165-1.841,2.451l2.127,4.084H205.032z M203.411,90.158h-2.075v2.891h2.075c0.933,0,1.568-0.531,1.568-1.438
			C204.979,90.702,204.344,90.158,203.411,90.158z"/>
		<path fill="#313D45" d="M218.869,98.131V91.96l-2.127,4.498h-1.038l-2.178-4.498v6.171h-1.4v-9.232h1.4l2.697,5.745l2.646-5.745
			h1.399v9.232H218.869z"/>
	</g>
</g>
</svg>
